<svg width="10" height="16" viewBox="0 0 10 16" fill="none" xmlns="http://www.w3.org/2000/svg">
<path d="M8.8373 0.098587H1.1627C0.523313 0.098587 0 0.56856 0 1.14376V14.5272C0 15.1023 0.523313 15.5728 1.1627 15.5728H8.8373C9.47669 15.5728 10 15.1032 10 14.5276V1.14376C10 0.56856 9.47669 0.098587 8.8373 0.098587ZM3.77238 0.851958H6.22762C6.30533 0.851958 6.36829 0.90855 6.36829 0.978847C6.36829 1.0487 6.30533 1.10529 6.22762 1.10529H3.77238C3.69467 1.10529 3.63171 1.0487 3.63171 0.978847C3.63171 0.90855 3.69467 0.851958 3.77238 0.851958ZM5 15.0502C4.67883 15.0502 4.41865 14.8163 4.41865 14.5272C4.41865 14.238 4.67883 14.0046 5 14.0046C5.32117 14.0046 5.58135 14.238 5.58135 14.5272C5.58135 14.8163 5.32117 15.0502 5 15.0502ZM9.19093 13.6385H0.809069V1.75609H9.19093V13.6385Z" fill="#1F1E25"/>
</svg>
