<svg width="16" height="16" viewBox="0 0 16 16" fill="none" xmlns="http://www.w3.org/2000/svg">
<path d="M8 0.201874C10.1736 0.201874 10.4448 0.209611 11.2976 0.248296C12.1496 0.286982 12.7296 0.416191 13.24 0.608071C13.768 0.804593 14.2128 1.07075 14.6576 1.50016C15.0644 1.88693 15.3792 2.35479 15.58 2.87117C15.7776 3.36402 15.912 3.92573 15.952 4.74973C15.9896 5.57451 16 5.8368 16 7.93896C16 10.0411 15.992 10.3034 15.952 11.1282C15.912 11.9522 15.7776 12.5131 15.58 13.0068C15.3797 13.5234 15.0649 13.9914 14.6576 14.3778C14.2576 14.7711 13.7738 15.0755 13.24 15.2699C12.7304 15.461 12.1496 15.5909 11.2976 15.6296C10.4448 15.666 10.1736 15.6761 8 15.6761C5.8264 15.6761 5.5552 15.6683 4.7024 15.6296C3.8504 15.5909 3.2704 15.461 2.76 15.2699C2.22586 15.076 1.74202 14.7715 1.3424 14.3778C0.935525 13.9911 0.620745 13.5232 0.42 13.0068C0.2216 12.5139 0.088 11.9522 0.048 11.1282C0.0104 10.3034 0 10.0411 0 7.93896C0 5.8368 0.00799995 5.57451 0.048 4.74973C0.088 3.92496 0.2216 3.3648 0.42 2.87117C0.620189 2.35447 0.935043 1.88649 1.3424 1.50016C1.74214 1.10652 2.22594 0.802063 2.76 0.608071C3.2704 0.416191 3.8496 0.286982 4.7024 0.248296C5.5552 0.211932 5.8264 0.201874 8 0.201874ZM8 4.07042C6.93913 4.07042 5.92172 4.478 5.17157 5.20349C4.42143 5.92898 4 6.91296 4 7.93896C4 8.96496 4.42143 9.94894 5.17157 10.6744C5.92172 11.3999 6.93913 11.8075 8 11.8075C9.06087 11.8075 10.0783 11.3999 10.8284 10.6744C11.5786 9.94894 12 8.96496 12 7.93896C12 6.91296 11.5786 5.92898 10.8284 5.20349C10.0783 4.478 9.06087 4.07042 8 4.07042ZM13.2 3.87699C13.2 3.62049 13.0946 3.3745 12.9071 3.19312C12.7196 3.01175 12.4652 2.90986 12.2 2.90986C11.9348 2.90986 11.6804 3.01175 11.4929 3.19312C11.3054 3.3745 11.2 3.62049 11.2 3.87699C11.2 4.13349 11.3054 4.37949 11.4929 4.56086C11.6804 4.74223 11.9348 4.84413 12.2 4.84413C12.4652 4.84413 12.7196 4.74223 12.9071 4.56086C13.0946 4.37949 13.2 4.13349 13.2 3.87699ZM8 5.61784C8.63652 5.61784 9.24697 5.86238 9.69706 6.29768C10.1471 6.73297 10.4 7.32336 10.4 7.93896C10.4 8.55456 10.1471 9.14495 9.69706 9.58025C9.24697 10.0155 8.63652 10.2601 8 10.2601C7.36348 10.2601 6.75303 10.0155 6.30294 9.58025C5.85286 9.14495 5.6 8.55456 5.6 7.93896C5.6 7.32336 5.85286 6.73297 6.30294 6.29768C6.75303 5.86238 7.36348 5.61784 8 5.61784Z" fill="#1F1E25"/>
</svg>
