<svg width="16" height="17" viewBox="0 0 16 17" fill="none" xmlns="http://www.w3.org/2000/svg">
<path d="M15.9991 12.17V15.2097C15.9992 15.4273 15.914 15.6369 15.7605 15.7961C15.6071 15.9553 15.397 16.0523 15.1725 16.0676C14.7841 16.0934 14.4668 16.1071 14.2214 16.1071C6.36676 16.1071 0 9.9496 0 2.35306C0 2.1158 0.0133326 1.80892 0.0408866 1.43326C0.056639 1.21615 0.156952 1.01291 0.321585 0.864536C0.486218 0.716163 0.702915 0.633706 0.927949 0.633805H4.07089C4.18114 0.633697 4.28749 0.673226 4.36929 0.744714C4.4511 0.816202 4.5025 0.914544 4.51353 1.02064C4.53397 1.21835 4.55264 1.37566 4.57041 1.49515C4.74706 2.68739 5.10905 3.84695 5.64413 4.93453C5.72857 5.10645 5.67346 5.3119 5.51347 5.42194L3.59536 6.74749C4.76814 9.39037 6.94588 11.4965 9.67857 12.6308L11.0474 10.7791C11.1033 10.7035 11.185 10.6492 11.278 10.6258C11.3711 10.6024 11.4697 10.6114 11.5567 10.6511C12.6811 11.1676 13.8797 11.5168 15.1121 11.6869C15.2356 11.7041 15.3983 11.723 15.6009 11.7419C15.7105 11.7528 15.8119 11.8026 15.8857 11.8817C15.9594 11.9608 16.0001 12.0635 16 12.17H15.9991Z" fill="#1F1E25"/>
</svg>
