<svg width="16" height="13" viewBox="0 0 16 13" fill="none" xmlns="http://www.w3.org/2000/svg">
<path d="M15.9992 1.62867C15.4 1.88485 14.7645 2.05309 14.1138 2.12784C14.7996 1.73141 15.313 1.10752 15.5581 0.372415C14.9144 0.742616 14.2088 1.00206 13.4733 1.1424C12.9793 0.63154 12.3245 0.292733 11.6106 0.178655C10.8968 0.0645766 10.164 0.181618 9.52611 0.511584C8.88822 0.84155 8.38099 1.36595 8.08329 2.00327C7.78559 2.64058 7.71409 3.3551 7.87991 4.03574C6.57465 3.97251 5.29775 3.64469 4.13209 3.07357C2.96644 2.50244 1.93809 1.70078 1.11381 0.720617C0.822049 1.20495 0.668725 1.75553 0.669545 2.31597C0.669545 3.41595 1.24882 4.38773 2.12951 4.95669C1.60833 4.94083 1.09861 4.8048 0.642857 4.55994V4.59938C0.643014 5.33197 0.905313 6.04197 1.38528 6.60898C1.86525 7.176 2.53335 7.56515 3.27629 7.71044C2.79248 7.83716 2.28517 7.85583 1.79278 7.76506C2.00225 8.39564 2.41052 8.94712 2.96043 9.34229C3.51034 9.73746 4.17436 9.95652 4.8595 9.96882C4.17856 10.4857 3.39888 10.8678 2.56506 11.0932C1.73123 11.3187 0.859598 11.3831 0 11.2827C1.50055 12.2154 3.24733 12.7105 5.0314 12.7089C11.0699 12.7089 14.3721 7.8743 14.3721 3.68147C14.3721 3.54492 14.3681 3.40685 14.3619 3.27182C15.0046 2.82285 15.5593 2.26668 16 1.62943L15.9992 1.62867Z" fill="#1F1E25"/>
</svg>
