<svg width="16" height="13" viewBox="0 0 16 13" fill="none" xmlns="http://www.w3.org/2000/svg">
<path d="M15.6344 2.09907C16 3.49936 16 6.42253 16 6.42253C16 6.42253 16 9.3457 15.6344 10.746C15.4312 11.52 14.8368 12.129 14.084 12.3349C12.7168 12.7089 8 12.7089 8 12.7089C8 12.7089 3.2856 12.7089 1.916 12.3349C1.16 12.1259 0.5664 11.5176 0.3656 10.746C2.38419e-08 9.3457 0 6.42253 0 6.42253C0 6.42253 2.38419e-08 3.49936 0.3656 2.09907C0.5688 1.32506 1.1632 0.716065 1.916 0.510186C3.2856 0.136146 8 0.136147 8 0.136147C8 0.136147 12.7168 0.136146 14.084 0.510186C14.84 0.719209 15.4336 1.32742 15.6344 2.09907ZM6.4 9.17282L11.2 6.42253L6.4 3.67224V9.17282Z" fill="#1F1E25"/>
</svg>
